# xmcd
#
# Track frame offsets: 
#        150
#        37189
#        71314
#        115825
#        149224
#        183735
#        238997
#
# Disc length: 3658 seconds
#
# Revision: 1
# Processed by: cddbd v1.5.2PL0 Copyright (c) Steve Scherf et al.
# Submitted via: ExactAudioCopy v0.95b3
#
DISCID=700e4807
DTITLE=Elvin Jones Jazz Machine - The Truth - Heard Live At The Blue N
DTITLE=ote
DYEAR=1999
DGENRE=Jazz
TTITLE0=E.J.'s Bluesl (Live)
TTITLE1=Straight No Chaserl (Live)
TTITLE2=Body And Soul (Live)
TTITLE3=Truthl (Live)
TTITLE4=A Lullaby Of Itsugo Villagel (Live)
TTITLE5=Wise Onel (Live)
TTITLE6=Three Card Mollyl (Live)
EXTD=
EXTT0=
EXTT1=
EXTT2=
EXTT3=
EXTT4=
EXTT5=
EXTT6=
PLAYORDER=
